<svg version="1" xmlns="http://www.w3.org/2000/svg" width="666.667" height="666.667" viewBox="0 0 500.000000 500.000000"><path d="M75.8 1c-12.1 2.1-27.9 9-38.9 17.1C21.3 29.6 10.4 45.1 3.4 66L.5 74.5v351l2.9 8.5c10.7 31.8 30.8 51.9 62.6 62.6l8.5 2.9h351l8.5-2.9c31.8-10.7 51.9-30.8 62.6-62.6l2.9-8.5v-351l-2.9-8.5C485.9 34.2 465.8 14.1 434 3.4L425.5.5 253 .4C158.1.3 78.4.6 75.8 1zm190.7 85.9c3.9 2.4 7.2 4.7 7.5 5.1.3.3 3 2.1 6 4s5.7 3.7 6 4c.3.3 3.2 2.5 6.5 5 6.7 5 9.2 7.1 14.4 11.6 2 1.7 4.7 3.9 6 5 8 6.4 24.1 23.5 33.4 35.4 3.2 4 11.4 15.7 12 17 .4.8 1.7 3.1 2.8 5 3.7 6.1 7.9 14.4 7.9 15.7 0 .7.5 1.3 1 1.3.6 0 1 .6 1 1.4 0 .7.7 2.7 1.5 4.2.8 1.6 1.5 3.9 1.5 5.1 0 1.3.4 2.3.8 2.3 1.1 0 4.7 15.1 6.3 27 1.2 8.2.5 33.5-1 38.4-.5 1.7-1.7 5.8-2.7 9.1-.9 3.3-2 6.9-2.5 8-1.3 3.5-9.2 20-9.8 20.5-.3.3-2.3 3-4.3 6-2.1 3-5.1 7.1-6.8 9-1.6 1.9-3 3.8-3 4.1 0 .5 17.4 17.9 33.7 33.8 9.6 9.2 12.5 16 10.3 24-1.7 6.5-8.7 13.1-13.9 13.1-1.1 0-2.1.4-2.1 1 0 1.3-4.7 1.3-5.5 0-.3-.6-1.5-1-2.6-1-2.9 0-3.3-.4-27.5-24.9-24.3-24.6-22.1-23.3-30.8-18.7-3.7 1.9-11.8 4.7-25.6 8.8-6.2 1.8-38.4 1.8-46.5 0-20.3-4.6-43.3-16.3-58-29.6-5.3-4.8-8.5-5.8-8.5-2.8 0 1-1.2 3.2-2.7 4.8-2.9 3-12.3 8.4-14.9 8.4-.8 0-1.4.4-1.4.8 0 .5-.8 1.7-1.7 2.8-2.4 2.7-4.2 5.5-4.9 7.6-.4 1-1 1.8-1.4 1.8-.4 0-1.1 1.1-1.4 2.5-.4 1.4-1.1 2.5-1.6 2.5-.6 0-1 .6-1 1.4 0 .8-.3 1.6-.8 1.8-.4.1-2.3 2.8-4.2 5.8-1.9 3-4.7 6.8-6.2 8.3-1.5 1.6-3.1 3.4-3.5 4-1.3 2-10.8 9.7-12 9.7-.6 0-1.3.3-1.5.7-.1.5-1.8 1.6-3.6 2.5-5 2.7-13 2.3-18.3-.6-6.3-3.6-8.4-7.5-8.4-16.1 0-7.4 2.1-13 6.8-18 6-6.5 7.7-8.3 11.6-11.8 2.3-2.1 7.6-6.3 11.9-9.3 4.2-2.9 8.2-5.7 8.7-6.2.6-.4 2.7-1.6 4.8-2.7 2-1.1 3.7-2.3 3.7-2.7 0-.5.5-.8 1-.8 2.1 0 7-4.4 7-6.2 0-1 .5-1.8 1-1.8.6 0 1-.8 1-1.8 0-1.9 4.5-7.1 7.8-9 1.2-.6 3.7-1.2 5.5-1.2 2.5 0 3.9-.7 5.5-3 2.7-3.6 7.2-4 12.1-1.2l3.1 1.7 3.6-4.3c2-2.3 4.2-4.2 4.8-4.2.6.1 3.3 2 5.9 4.4 8.7 7.9 28.7 18.6 34.8 18.6.8 0 1.9.4 2.4.9 1.7 1.7 16.5 3.5 28 3.4 16.3-.1 32.5-3.1 32.5-6 0-.7-13.5-14.9-29.9-31.5-16.5-16.7-40.8-41.3-54-54.8L180 211.5l-17.1 17.1-17.1 17.1-19-19-19.1-19 9-8.6c36.6-35 45.5-43.5 50.7-48.2 3.3-3 7.4-6.9 9.3-8.8l3.3-3.4 12.7 1.1c7.1.6 16.6 1.6 21.3 2.2 4.7.5 13.6 1.6 19.9 2.2l11.4 1.3-11.9 12.1c-6.5 6.6-15.7 15.9-20.4 20.7l-8.4 8.8L262 244c41.3 40.9 58.1 57 59.8 57 1.2 0 2.2-.5 2.2-1 0-1 .8-2.2 3.8-5.5.6-.7 1.2-1.8 1.2-2.4 0-.6.4-1.1.8-1.1.5 0 1.6-1.9 2.6-4.3 1-2.3 2.5-5.5 3.2-7.1.8-1.6 1.4-3.7 1.4-4.8 0-1 .3-1.8.8-1.8 1.3 0 4.5-23.4 3.9-29.6-1-11.1-3-23.9-3.8-24.9-.5-.5-.9-1.7-.9-2.8 0-1.7-2.3-10-4-14.2-.4-1.1-2-5.4-3.5-9.5-3.2-8.5-17.7-37.5-19.6-39-.4-.3-.9-1.5-1.3-2.8-.4-1.2-1.2-2.2-1.7-2.2s-.9-.7-.9-1.5-.3-1.5-.7-1.5c-.5 0-2.4-2.7-4.3-6s-3.8-6-4.2-6c-.5 0-.8-.7-.8-1.5s-.3-1.5-.8-1.5c-.4 0-1.5-1.5-2.5-3.3-1-1.7-3.1-4.8-4.7-6.7-1.6-1.9-3.4-4-4-4.7-.5-.7-1-1.6-1-2.2 0-.5-.3-1.1-.8-1.3-.4-.2-2.3-2.3-4.2-4.8-3.4-4.4-4.8-6.1-8.8-10.8-1.1-1.3-3.5-4.1-5.2-6.2-1.7-2.1-4-4.9-5.1-6.1-3.5-4.1-3.3-4 7.6 3z"/></svg>